<svg width="200" height="150" viewBox="0 0 200 150" fill="none" xmlns="http://www.w3.org/2000/svg">
<path fill-rule="evenodd" clip-rule="evenodd" d="M52.2036 100.558C41.5995 101.688 35.6114 93.9711 40.6186 48.3632C43.138 25.4156 60.4977 13.7442 85.9166 16.5349C109.924 19.1706 123.598 35.8204 127.582 58.859C128.271 59.3587 128.822 59.8604 129.258 60.3742C132.061 62.627 132.199 65.8451 130.466 69.4287C130.039 74.0204 129.741 80.349 133.59 90.0124C121.717 142.456 112.2 137.869 99.9271 131.955C95.6379 129.888 91.0122 127.658 85.8319 127.645C83.4037 126.747 81.1523 125.966 79.0573 125.239C65.3083 120.465 58.2921 118.03 52.2036 100.558Z" fill="#72FFE6"/>
<path d="M82.2653 71.2303C82.0937 72.793 86.5219 74.5612 89.4974 74.8878C92.4729 75.2145 98.3011 74.1633 98.4727 72.6007C98.6442 71.038 94.6197 68.9051 91.6441 68.5784C88.6686 68.2517 82.4368 69.6677 82.2653 71.2303Z" fill="#C331CF"/>
<path d="M116.968 72.9949C116.968 74.0068 121.212 73.6801 124.187 74.0068C126.027 73.7997 128.192 74.0068 128.192 73.409C128.192 72.5958 127.711 71.0411 124.736 70.7144C121.76 70.3877 116.968 72.9949 116.968 72.9949Z" fill="#C331CF"/>
<path d="M93.8473 102.827C93.6474 104.647 104.111 114.897 111.413 117.033C122.849 118.955 123.364 113.786 123.564 111.966C123.89 108.999 121.167 112.433 112.1 110.77C96.6928 108.698 93.9559 101.838 93.8473 102.827Z" fill="#05BC38"/>
<path d="M93.8473 102.827C95.2374 102.646 101.607 109.618 111.496 110.036C121.239 111.773 123.149 109.981 123.149 109.981C123.149 109.981 120.911 105.399 111.772 104.396C102.525 104.381 92.8358 102.958 93.8473 102.827Z" fill="#05BC38"/>
<path d="M55.3984 16.8633C53.6406 16.7461 51.7891 16.6523 49.8438 16.582C47.8984 16.4883 45.918 16.4414 43.9023 16.4414C40.0117 16.4414 36.168 16.582 32.3711 16.8633C32.2539 18.9961 32.1602 21.4805 32.0898 24.3164C32.043 27.1289 32.0195 30.0703 32.0195 33.1406C32.4414 33.1875 32.8633 33.1992 33.2852 33.1758C33.7305 33.1523 34.1875 33.1406 34.6562 33.1406C36.8359 33.1406 39.0273 33.082 41.2305 32.9648C43.4336 32.8477 45.707 32.6484 48.0508 32.3672C47.9336 33.1641 47.8516 33.9492 47.8047 34.7227C47.7812 35.4727 47.7695 36.2461 47.7695 37.043C47.7695 37.8398 47.7812 38.6367 47.8047 39.4336C47.8516 40.207 47.9336 40.9922 48.0508 41.7891C46.4336 41.5781 44.8164 41.4141 43.1992 41.2969C41.582 41.1797 39.9648 41.1211 38.3477 41.1211C37.293 41.1211 36.2383 41.1445 35.1836 41.1914C34.1289 41.2148 33.0742 41.2734 32.0195 41.3672C32.0195 44.0391 32.0195 46.5586 32.0195 48.9258C32.043 51.293 32.0781 53.3906 32.125 55.2188C32.1484 57.3516 32.1836 59.332 32.2305 61.1602C30.8477 61.1602 29.5 61.1719 28.1875 61.1953C26.8984 61.2188 25.5977 61.2539 24.2852 61.3008C22.9961 61.3711 21.6719 61.4531 20.3125 61.5469C18.9766 61.6406 17.5703 61.7695 16.0938 61.9336C16.5391 58.5352 16.8906 55.0664 17.1484 51.5273C17.4297 47.9883 17.6406 44.4375 17.7812 40.875C17.9219 37.2891 18.0039 33.7266 18.0273 30.1875C18.0742 26.6484 18.0977 23.1914 18.0977 19.8164V7.86328C20.2305 7.98047 22.4102 8.07422 24.6367 8.14453C26.8867 8.19141 29.1719 8.21484 31.4922 8.21484C35.4531 8.21484 39.4609 8.13281 43.5156 7.96875C47.5938 7.80469 51.7539 7.58203 55.9961 7.30078L55.3984 16.8633Z" fill="#05BC38"/>
<path d="M86.582 61.1602C86.582 60.4805 86.5703 59.8008 86.5469 59.1211C86.5234 58.418 86.5117 57.7266 86.5117 57.0469C85.2695 58.1719 83.9688 59.0273 82.6094 59.6133C81.2734 60.1758 80.043 60.5977 78.918 60.8789C77.6055 61.207 76.3047 61.3945 75.0156 61.4414C72.6719 61.4414 70.4102 61.0781 68.2305 60.3516C66.0742 59.6484 64.1523 58.582 62.4648 57.1523C60.7773 55.7227 59.4062 53.9414 58.3516 51.8086C57.3203 49.6523 56.7461 47.1562 56.6289 44.3203C56.6289 41.4609 57.0156 38.8594 57.7891 36.5156C58.5625 34.1484 59.7227 32.1211 61.2695 30.4336C62.8164 28.7461 64.7383 27.4453 67.0352 26.5312C69.332 25.5938 71.9922 25.1133 75.0156 25.0898C75.1094 25.0898 75.4609 25.1133 76.0703 25.1602C76.7031 25.1836 77.4766 25.2891 78.3906 25.4766C79.3047 25.6406 80.3008 25.9219 81.3789 26.3203C82.457 26.6953 83.5234 27.2227 84.5781 27.9023L84.0156 23.5781L97.9023 22.6289C97.6211 29.3555 97.4805 36.0469 97.4805 42.7031C97.4805 44.3203 97.4805 45.8555 97.4805 47.3086C97.5039 48.7383 97.5273 50.168 97.5508 51.5977C97.5977 53.0039 97.6445 54.4336 97.6914 55.8867C97.7617 57.3164 97.832 58.8281 97.9023 60.4219L86.582 61.1602ZM70.1641 52.6523C72.9531 52.5352 75.6953 52.3477 78.3906 52.0898C81.0859 51.832 83.7461 51.4453 86.3711 50.9297C86.3008 48.0234 86.1719 45.2109 85.9844 42.4922C85.8203 39.7734 85.5859 36.9961 85.2812 34.1602H83.2773C81.0039 34.1602 78.7188 34.2422 76.4219 34.4062C74.1484 34.5469 71.8516 34.793 69.5312 35.1445C69.25 37.6055 69.1094 40.0781 69.1094 42.5625C69.1094 43.5 69.1328 44.3789 69.1797 45.1992C69.2266 45.9961 69.2852 46.793 69.3555 47.5898C69.4492 48.3867 69.5547 49.1953 69.6719 50.0156C69.8125 50.8359 69.9766 51.7148 70.1641 52.6523Z" fill="#05BC38"/>
<path d="M129.016 36.6562C129.133 36.0938 129.215 35.5312 129.262 34.9688C129.309 34.3828 129.332 33.7969 129.332 33.2109C129.332 32.6719 129.309 32.1445 129.262 31.6289C129.215 31.1133 129.133 30.5859 129.016 30.0469C128.008 29.8594 126.988 29.7305 125.957 29.6602C124.926 29.5898 123.859 29.5547 122.758 29.5547C121.68 29.5547 120.59 29.5898 119.488 29.6602C118.387 29.7305 117.273 29.8594 116.148 30.0469C116.031 31.3125 115.938 32.5547 115.867 33.7734C115.82 34.9922 115.797 36.2227 115.797 37.4648C115.797 40.3242 115.938 43.1602 116.219 45.9727C116.523 48.7617 116.934 51.5625 117.449 54.375C118.504 54.4922 119.512 54.5742 120.473 54.6211C121.457 54.6445 122.465 54.6562 123.496 54.6562C124.504 54.6562 125.5 54.6445 126.484 54.6211C127.469 54.5742 128.488 54.4922 129.543 54.375C129.59 53.8828 129.625 53.4023 129.648 52.9336C129.672 52.4648 129.684 52.0078 129.684 51.5625C129.684 51.1406 129.672 50.7188 129.648 50.2969C129.625 49.875 129.59 49.4648 129.543 49.0664L142.797 49.3477C142.141 51.5742 141.191 53.4844 139.949 55.0781C138.73 56.6719 137.277 57.9844 135.59 59.0156C133.926 60.0234 132.062 60.7617 130 61.2305C127.938 61.6992 125.77 61.9336 123.496 61.9336C120.707 61.9336 118.082 61.5586 115.621 60.8086C113.184 60.0586 111.051 58.8516 109.223 57.1875C107.418 55.5 105.988 53.3086 104.934 50.6133C103.902 47.918 103.387 44.6133 103.387 40.6992C103.387 37.5352 103.938 34.8164 105.039 32.543C106.141 30.2695 107.605 28.3945 109.434 26.918C111.285 25.4414 113.418 24.3633 115.832 23.6836C118.27 22.9805 120.824 22.6289 123.496 22.6289C125.863 22.6289 128.113 22.9102 130.246 23.4727C132.379 24.0117 134.301 24.8555 136.012 26.0039C137.746 27.1289 139.223 28.582 140.441 30.3633C141.66 32.1211 142.539 34.2188 143.078 36.6562H129.016Z" fill="#05BC38"/>
<path d="M186.602 43.5117L159.109 45.7266C159.227 47.1797 159.391 48.6211 159.602 50.0508C159.812 51.4805 160.082 52.9219 160.41 54.375C162.473 54.5156 164.465 54.5859 166.387 54.5859C167.441 54.5859 168.461 54.5742 169.445 54.5508C170.43 54.5039 171.449 54.4453 172.504 54.375C172.551 53.9062 172.586 53.4375 172.609 52.9688C172.633 52.5 172.645 52.0312 172.645 51.5625C172.645 51.1406 172.633 50.7305 172.609 50.332C172.609 49.9102 172.574 49.4883 172.504 49.0664L185.758 49.3477C185.102 51.5742 184.152 53.4844 182.91 55.0781C181.691 56.6719 180.238 57.9844 178.551 59.0156C176.887 60.0234 175.023 60.7617 172.961 61.2305C170.898 61.6992 168.73 61.9336 166.457 61.9336C163.668 61.9336 161.043 61.5586 158.582 60.8086C156.145 60.0586 154.012 58.8516 152.184 57.1875C150.379 55.5 148.949 53.3086 147.895 50.6133C146.863 47.918 146.348 44.6133 146.348 40.6992C146.348 37.5352 146.898 34.8164 148 32.543C149.102 30.2695 150.566 28.3945 152.395 26.918C154.246 25.4414 156.379 24.3633 158.793 23.6836C161.23 22.9805 163.785 22.6289 166.457 22.6289C169.246 22.6289 171.859 23.0039 174.297 23.7539C176.758 24.5039 178.891 25.6758 180.695 27.2695C182.523 28.8633 183.965 30.9023 185.02 33.3867C186.074 35.8711 186.602 38.8359 186.602 42.2812V43.5117ZM158.758 38.3438H172.855C172.855 35.4375 172.562 32.6719 171.977 30.0469C169.961 29.625 167.852 29.4141 165.648 29.4141C163.492 29.4141 161.312 29.625 159.109 30.0469C158.969 31.3594 158.875 32.6953 158.828 34.0547C158.781 35.3906 158.758 36.8203 158.758 38.3438Z" fill="#05BC38"/>
<path d="M162.797 102.867C160.781 102.773 158.781 102.727 156.797 102.727H156.656C156.656 103.383 156.648 104.305 156.633 105.492C156.633 106.664 156.633 107.984 156.633 109.453C156.633 110.906 156.625 112.445 156.609 114.07C156.594 115.695 156.586 117.273 156.586 118.805C156.586 120.336 156.578 121.766 156.562 123.094C156.562 124.406 156.562 125.5 156.562 126.375H161.695V132.281H142.289V126.375H146.461C146.492 125.562 146.523 124.578 146.555 123.422C146.602 122.266 146.648 121.016 146.695 119.672C146.742 118.328 146.789 116.922 146.836 115.453C146.898 113.984 146.945 112.523 146.977 111.07C147.023 109.602 147.062 108.18 147.094 106.805C147.125 105.43 147.141 104.164 147.141 103.008C146.391 103.039 145.648 103.078 144.914 103.125C144.18 103.156 143.438 103.195 142.688 103.242C142.734 102.57 142.773 101.945 142.805 101.367C142.852 100.773 142.875 100.188 142.875 99.6094C142.875 99.1562 142.859 98.7031 142.828 98.25C142.812 97.7812 142.766 97.2734 142.688 96.7266C143.812 96.8047 145.086 96.8594 146.508 96.8906C147.93 96.9062 149.391 96.9141 150.891 96.9141C152.391 96.9141 153.844 96.9062 155.25 96.8906C156.672 96.875 157.945 96.8516 159.07 96.8203C160.383 96.7891 161.625 96.7578 162.797 96.7266V102.867Z" fill="#5168B7"/>
<path d="M187.266 114.141C185.75 114.062 184.227 113.992 182.695 113.93C181.18 113.867 179.664 113.812 178.148 113.766C177.961 116.875 177.797 119.977 177.656 123.07C177.516 126.164 177.406 129.281 177.328 132.422L170.484 133.102C170.578 127.383 170.625 121.719 170.625 116.109V113.625H168.938C168 113.625 167.062 113.633 166.125 113.648C165.188 113.664 164.25 113.672 163.312 113.672V107.719C163.719 107.719 164.125 107.727 164.531 107.742C164.953 107.758 165.383 107.766 165.82 107.766H170.578C170.578 106.312 170.57 104.883 170.555 103.477C170.539 102.055 170.516 100.633 170.484 99.2109H179.367C179.211 100.617 179.07 102.016 178.945 103.406C178.836 104.781 178.734 106.156 178.641 107.531C180.094 107.469 181.523 107.406 182.93 107.344C184.352 107.266 185.797 107.18 187.266 107.086V114.141Z" fill="#5168B7"/>
</svg>
