<svg xmlns="http://www.w3.org/2000/svg" width="223" height="121" viewBox="0 0 223 121"><g transform="translate(-44 -133)"><g transform="translate(-245 -200.431)"><path d="M350.83,334.431a60.615,60.615,0,0,0-19.161,118.121c3.029.56,4.141-1.316,4.141-2.917,0-1.444-.056-6.22-.082-11.284-16.861,3.667-20.419-7.151-20.419-7.151-2.757-7-6.73-8.868-6.73-8.868-5.5-3.762.414-3.684.414-3.684,6.086.428,9.291,6.247,9.291,6.247,5.406,9.265,14.179,6.587,17.637,5.038.544-3.917,2.115-6.592,3.848-8.106-13.462-1.532-27.614-6.73-27.614-29.952a23.456,23.456,0,0,1,6.245-16.268c-.629-1.528-2.7-7.692.587-16.04,0,0,5.09-1.628,16.672,6.214a57.462,57.462,0,0,1,30.354,0c11.568-7.842,16.651-6.214,16.651-6.214,3.3,8.348,1.223,14.513.594,16.04a23.41,23.41,0,0,1,6.238,16.268c0,23.279-14.179,28.4-27.675,29.9,2.174,1.882,4.111,5.569,4.111,11.224,0,8.11-.07,14.636-.07,16.633,0,1.614,1.091,3.5,4.163,2.909A60.618,60.618,0,0,0,350.83,334.431Z" transform="translate(0 0)" fill="#b7b7b7" fill-rule="evenodd"/><path d="M313.1,421.138c-.133.3-.607.392-1.039.186s-.687-.609-.544-.91.605-.4,1.044-.19.691.613.539.914Zm-.746-.552" transform="translate(0.078 0.314)" fill="#b7b7b7"/><path d="M315.545,423.869c-.289.267-.854.143-1.237-.28a.927.927,0,0,1-.178-1.26c.3-.268.846-.143,1.244.28s.474.988.172,1.26Zm-.578-.62" transform="translate(0.087 0.321)" fill="#b7b7b7"/><path d="M317.926,427.348c-.371.259-.979.017-1.354-.522s-.371-1.186.008-1.445.975-.025,1.355.509.37,1.2-.009,1.458Zm0,0" transform="translate(0.095 0.332)" fill="#b7b7b7"/><path d="M321.19,430.708c-.332.366-1.04.267-1.558-.233a1.165,1.165,0,0,1-.344-1.549c.336-.366,1.048-.263,1.57.233s.686,1.185.332,1.549Zm0,0" transform="translate(0.106 0.345)" fill="#b7b7b7"/><path d="M325.691,432.657c-.147.474-.828.689-1.514.488s-1.134-.764-1-1.243.827-.7,1.519-.487,1.134.758.992,1.242Zm0,0" transform="translate(0.121 0.355)" fill="#b7b7b7"/><path d="M330.633,433.016c.017.5-.565.914-1.286.923s-1.311-.388-1.319-.88.569-.914,1.294-.927,1.311.388,1.311.884Zm0,0" transform="translate(0.138 0.358)" fill="#b7b7b7"/><path d="M335.232,432.233c.086.487-.414.988-1.13,1.121s-1.355-.173-1.444-.655c-.087-.5.423-1,1.125-1.13s1.358.169,1.449.664Zm0,0" transform="translate(0.155 0.355)" fill="#b7b7b7"/></g><rect width="223" height="121" transform="translate(44 133)" fill="none"/><text transform="translate(180 188)" fill="#b7b7b7" font-size="24" font-family="CarbonRg-Regular, Carbon"><tspan x="0" y="0">GitHub</tspan><tspan font-size="33"><tspan x="0" y="38">Repo</tspan></tspan></text></g></svg>